<svg width="34" height="34" viewBox="0 0 34 34" fill="none" xmlns="http://www.w3.org/2000/svg">
<g filter="url(#filter0_d_0_110)">
<path d="M16.9861 25C14.9018 25 13.0898 23.6451 12.6585 21.8087H6.24061C5.9946 21.8075 5.75442 21.7402 5.55012 21.6152C5.34582 21.4903 5.18646 21.3131 5.09196 21.106C4.89931 20.6606 5.01503 20.1695 5.38586 19.8512C5.38389 19.8512 5.76063 19.4483 6.1525 18.5946C6.54043 17.7384 7.00265 16.2462 7.00265 14.0087C7.00265 11.3558 7.64371 7.7142 10.6978 5.43236C11.5114 4.81818 12.4431 4.34733 13.4455 4.04384C13.4895 3.51925 13.6684 2.71527 14.295 2.04319C14.7467 1.56596 15.583 1 17.0144 1C18.4898 1 19.3183 1.56836 19.7535 2.04499C20.2269 2.554 20.5051 3.21109 20.5813 4.00067C21.5889 4.31404 22.5231 4.79681 23.3356 5.42397C25.007 6.71477 26.9979 9.2568 26.9979 14.0357C26.9979 16.3307 27.4522 17.8206 27.8335 18.6665C28.1833 19.4585 28.5358 19.7936 28.5752 19.829C28.973 20.1731 29.0927 20.6324 28.9289 21.0629C28.8482 21.2547 28.7128 21.4234 28.5368 21.5518C28.3608 21.6801 28.1506 21.7634 27.9276 21.7931C27.8822 21.8087 27.7994 21.8087 27.7448 21.8087H21.3105C20.8785 23.6451 19.0678 25 16.9861 25ZM13.3337 21.8081C13.7519 23.3075 15.2595 24.3999 16.9861 24.3999C18.7101 24.3999 20.2171 23.3075 20.6372 21.8081H13.3337ZM21.0383 21.2085H27.7468C27.7619 21.2085 27.7783 21.2097 27.7934 21.2073C28.0512 21.1714 28.234 21.0395 28.3142 20.8536C28.3513 20.7579 28.3568 20.6543 28.3301 20.5557C28.3033 20.4572 28.2454 20.3679 28.1636 20.299L28.1136 20.2541C28.0321 20.1797 27.6159 19.7733 27.226 18.8913C26.823 17.998 26.341 16.4284 26.341 14.0345C26.341 9.48462 24.4764 7.08888 22.9115 5.88022C22.1091 5.25961 21.1774 4.79323 20.1724 4.50908C20.1075 4.491 20.0503 4.4551 20.0086 4.40627C19.967 4.35745 19.9429 4.29808 19.9396 4.23629C19.9015 3.48867 19.67 2.88074 19.2499 2.42929C18.9027 2.04859 18.2347 1.59774 17.0137 1.59774C15.8315 1.59774 15.1537 2.05099 14.7934 2.43169C14.2049 3.063 14.1004 3.85619 14.0898 4.27226C14.0883 4.33581 14.0646 4.39727 14.0224 4.4478C13.9801 4.49833 13.9213 4.53532 13.8545 4.55345C13.1733 4.7375 12.145 5.11881 11.1147 5.89401C8.25913 8.02775 7.65949 11.4835 7.65949 14.0069C7.65949 16.3433 7.16966 17.9159 6.75872 18.823C6.31096 19.7972 5.87372 20.2487 5.85531 20.2673C5.76304 20.3423 5.69865 20.4417 5.67109 20.5516C5.64352 20.6614 5.65413 20.7764 5.70146 20.8806C5.74618 20.977 5.82101 21.0594 5.91663 21.1174C6.01225 21.1753 6.12446 21.2064 6.23929 21.2067H21.0383V21.2085Z" fill="#F96A38" fill-opacity="0.5" shape-rendering="crispEdges"/>
<path d="M21.4383 20.8085H27.7468L27.7547 20.8086C27.8808 20.7873 27.9268 20.7346 27.9435 20.7022C27.9477 20.688 27.9477 20.6741 27.944 20.6606C27.9397 20.6444 27.9286 20.6241 27.906 20.605L27.8959 20.5965L27.896 20.5964L27.8461 20.5514L27.8441 20.5497C27.7262 20.4422 27.2754 19.9917 26.8607 19.0544C26.434 18.108 25.941 16.4826 25.941 14.0345C25.941 9.61356 24.1378 7.33283 22.667 6.19678L22.6668 6.19663C21.906 5.60827 21.0208 5.16464 20.0635 4.89399L21.4383 20.8085ZM21.4383 20.8085V20.8067H21.0383L6.24038 20.8067C6.24021 20.8067 6.24005 20.8067 6.23988 20.8067C6.19595 20.8065 6.15558 20.7945 6.12404 20.7753C6.09332 20.7567 6.0747 20.7339 6.06499 20.7137C6.05528 20.6915 6.05386 20.6696 6.05906 20.6489C6.06452 20.6271 6.07886 20.601 6.10767 20.5776L6.12436 20.564L6.13949 20.5488C6.18698 20.5008 6.65273 20.0115 7.12218 18.99L7.12307 18.9881C7.55713 18.0299 8.05949 16.4011 8.05949 14.0069C8.05949 11.5242 8.65261 8.23307 11.3541 6.21443L11.3551 6.21364C12.3342 5.47696 13.3124 5.11427 13.9588 4.9396L13.9592 4.93949C14.1007 4.90109 14.2315 4.82111 14.3291 4.70456C14.4271 4.58745 14.4858 4.43981 14.4897 4.28237L21.4383 20.8085ZM5.10078 19.5692C4.61827 20.0008 4.46595 20.6662 4.72482 21.2648L4.72475 21.2648L4.72805 21.2721C4.85742 21.5556 5.07279 21.7921 5.34139 21.9565C5.60973 22.1206 5.92175 22.2071 6.23869 22.2087H6.24061H12.3544C12.9524 24.0843 14.854 25.4 16.9861 25.4C19.1161 25.4 21.0161 24.0841 21.6145 22.2087H27.7448H27.7476C27.7737 22.2087 27.818 22.2087 27.8631 22.206C27.8931 22.2043 27.9487 22.2003 28.0091 22.1855C28.2855 22.1441 28.5486 22.0383 28.7725 21.875C29.0044 21.7059 29.1873 21.4801 29.2976 21.2181L29.2978 21.2182L29.3028 21.205C29.5314 20.6039 29.35 19.973 28.8411 19.5302C28.8205 19.5108 28.5137 19.2164 28.1995 18.5049L28.1982 18.5021C27.841 17.7098 27.3979 16.2763 27.3979 14.0357C27.3979 9.12554 25.3436 6.46933 23.5801 5.10739L23.58 5.10733C22.7956 4.50189 21.9045 4.026 20.9465 3.69907C20.8302 2.94733 20.5327 2.29593 20.0477 1.77391C19.5401 1.2187 18.6063 0.6 17.0144 0.6C15.4626 0.6 14.5242 1.21916 14.0045 1.76823L14.0024 1.77042C13.395 2.42189 13.1631 3.17704 13.0784 3.74087C12.1276 4.05783 11.241 4.52121 10.4576 5.11252C7.25151 7.50847 6.60265 11.3124 6.60265 14.0087C6.60265 16.1885 6.1529 17.6242 5.78856 18.4286C5.60313 18.8324 5.42287 19.1263 5.2921 19.3161C5.22668 19.411 5.17354 19.4801 5.13819 19.524C5.12201 19.5441 5.10939 19.5591 5.10078 19.5692ZM19.7044 4.6659L20.0086 4.40627L14.4897 4.28207C14.4993 3.90652 14.595 3.23201 15.0849 2.70558C15.3746 2.39991 15.9493 1.99774 17.0137 1.99774C18.1222 1.99774 18.6829 2.40118 18.9543 2.69881L18.9543 2.69883L18.9571 2.7018C19.2999 3.07022 19.5057 3.58172 19.5401 4.25667L19.5402 4.25741C19.5483 4.41046 19.6079 4.55287 19.7044 4.6659ZM16.9861 23.9999C15.6292 23.9999 14.446 23.2566 13.9163 22.2081H20.054C19.523 23.2569 18.3404 23.9999 16.9861 23.9999Z" stroke="#F96A38" stroke-opacity="0.5" stroke-width="0.8" shape-rendering="crispEdges"/>
</g>
<defs>
<filter id="filter0_d_0_110" x="0.19986" y="0.200012" width="33.6007" height="33.6" filterUnits="userSpaceOnUse" color-interpolation-filters="sRGB">
<feFlood flood-opacity="0" result="BackgroundImageFix"/>
<feColorMatrix in="SourceAlpha" type="matrix" values="0 0 0 0 0 0 0 0 0 0 0 0 0 0 0 0 0 0 127 0" result="hardAlpha"/>
<feOffset dy="4"/>
<feGaussianBlur stdDeviation="2"/>
<feComposite in2="hardAlpha" operator="out"/>
<feColorMatrix type="matrix" values="0 0 0 0 0 0 0 0 0 0 0 0 0 0 0 0 0 0 0.25 0"/>
<feBlend mode="normal" in2="BackgroundImageFix" result="effect1_dropShadow_0_110"/>
<feBlend mode="normal" in="SourceGraphic" in2="effect1_dropShadow_0_110" result="shape"/>
</filter>
</defs>
</svg>
