<svg width="28" height="26" viewBox="0 0 28 26" fill="none" xmlns="http://www.w3.org/2000/svg">
<path d="M14 0C6.3 0 0 5.17111 0 11.5556C0.0351518 13.0906 0.398477 14.5986 1.06402 15.9719C1.72955 17.3453 2.68087 18.55 3.85 19.5C3.85 20.3667 3.262 22.6344 0 26C3.318 25.8411 6.496 24.5556 9.058 22.3889C10.654 22.8656 12.334 23.1111 14 23.1111C21.7 23.1111 28 17.94 28 11.5556C28 5.17111 21.7 0 14 0ZM14 20.2222C7.812 20.2222 2.8 16.3367 2.8 11.5556C2.8 6.77444 7.812 2.88889 14 2.88889C20.188 2.88889 25.2 6.77444 25.2 11.5556C25.2 16.3367 20.188 20.2222 14 20.2222ZM21 13V10.1111H18.2V13H21ZM15.4 13V10.1111H12.6V13H15.4ZM9.8 13V10.1111H7V13H9.8Z" fill="#F96A38" fill-opacity="0.5"/>
</svg>
