<svg width="26" height="26" viewBox="0 0 26 26" fill="none" xmlns="http://www.w3.org/2000/svg">
<path d="M2.88889 26H23.1111C24.7043 26 26 24.8339 26 23.4V11.7001C26.0002 11.5294 25.9629 11.3603 25.8903 11.2026C25.8176 11.0449 25.7111 10.9016 25.5768 10.7811L14.0212 0.381158C13.8872 0.260329 13.728 0.164471 13.5528 0.0990679C13.3775 0.0336646 13.1897 0 13 0C12.8103 0 12.6225 0.0336646 12.4472 0.0990679C12.272 0.164471 12.1128 0.260329 11.9788 0.381158L0.423223 10.7811C0.288892 10.9016 0.182352 11.0449 0.109722 11.2026C0.0370926 11.3603 -0.000195203 11.5294 7.68469e-07 11.7001V23.4C7.68469e-07 24.8339 1.29567 26 2.88889 26ZM10.1111 23.4V16.9001H15.8889V23.4H10.1111ZM2.88889 12.2383L13 3.13843L23.1111 12.2383L23.1126 23.4H18.7778V16.9001C18.7778 15.4662 17.4821 14.3001 15.8889 14.3001H10.1111C8.51789 14.3001 7.22222 15.4662 7.22222 16.9001V23.4H2.88889V12.2383Z" fill="#FF7F53"/>
</svg>
