<svg width="24" height="23" viewBox="0 0 24 23" fill="none" xmlns="http://www.w3.org/2000/svg">
<path d="M24 5.59459C24 4.67459 23.8134 4.35135 22.8768 4.35135H6.7356L6.255 1.24324C6.1896 0.335676 5.745 0 4.8024 0H1.2006C0.312 0 0 0.304595 0 1.24324V1.86486C0 2.829 0.312 3.10811 1.2006 3.10811H3.4338L5.403 14.9189C5.613 15.5654 6.1896 16.1311 7.2036 16.1622H20.4108C21.4608 16.1622 21.9528 15.939 22.212 14.9189L24 5.59459ZM19.7862 13.0541H7.9176L7.035 7.45946H20.8056L19.7862 13.0541ZM7.8042 20.5135C7.8042 20.8401 7.86632 21.1636 7.987 21.4653C8.10769 21.7671 8.28458 22.0413 8.50757 22.2722C8.73056 22.5031 8.99527 22.6862 9.28659 22.8111C9.57791 22.936 9.89013 23.0002 10.2054 23C10.8419 23 11.4524 22.738 11.9025 22.2717C12.3525 21.8054 12.6054 21.173 12.6054 20.5135C12.6054 19.8541 12.3525 19.2216 11.9025 18.7553C11.4524 18.289 10.8419 18.027 10.2054 18.027C9.89013 18.0269 9.57791 18.0911 9.28659 18.2159C8.99527 18.3408 8.73056 18.524 8.50757 18.7549C8.28458 18.9858 8.10769 19.2599 7.987 19.5617C7.86632 19.8634 7.8042 20.1869 7.8042 20.5135ZM15.6084 20.5135C15.6084 21.8873 16.683 23 18.0096 23C18.6461 23 19.2566 22.738 19.7067 22.2717C20.1567 21.8054 20.4096 21.173 20.4096 20.5135C20.4096 19.8541 20.1567 19.2216 19.7067 18.7553C19.2566 18.289 18.6461 18.027 18.0096 18.027C17.6943 18.0269 17.3821 18.0911 17.0908 18.2159C16.7995 18.3408 16.5348 18.524 16.3118 18.7549C16.0888 18.9858 15.9119 19.2599 15.7912 19.5617C15.6705 19.8634 15.6084 20.1869 15.6084 20.5135Z" fill="white"/>
</svg>
