<svg width="26" height="26" viewBox="0 0 26 26" fill="none" xmlns="http://www.w3.org/2000/svg">
<path d="M23.6488 17.5695C23.196 16.8762 22.3922 16.3943 21.5517 16.0262C21.4648 15.9866 21.3717 15.9523 21.3238 15.9346L21.3135 15.9308C21.2166 15.895 21.0875 15.849 20.9295 15.7936C20.6122 15.6824 20.1595 15.527 19.5735 15.3282L18.2474 14.8781L17.9056 14.762L17.8156 14.7314C17.8091 14.7292 17.8039 14.7274 17.7998 14.726C17.4945 14.6098 17.2538 14.5117 17.0724 14.4308C16.9802 14.3897 16.9089 14.3556 16.8558 14.3283C16.8295 14.3148 16.8098 14.304 16.7957 14.296C16.7897 14.2925 16.7852 14.2899 16.782 14.288C16.78 14.2845 16.7769 14.2786 16.773 14.2698L16.7689 14.2603L16.7646 14.2509L16.66 14.0223C17.9866 12.5946 18.606 10.7498 18.5966 8.60717C18.5961 6.77557 18.1647 5.15518 17.2059 3.84075C16.1907 2.4489 14.7406 1.75 13 1.75C11.2594 1.75 9.80933 2.4489 8.79409 3.84075C7.83532 5.15518 7.40387 6.77557 7.40341 8.60717C7.39399 10.7498 8.01337 12.5946 9.33996 14.0223L9.23542 14.2509L9.23111 14.2603L9.22696 14.2698C9.22311 14.2786 9.22 14.2845 9.21798 14.288C9.21484 14.2899 9.21034 14.2925 9.20433 14.296C9.19021 14.304 9.17047 14.3148 9.14421 14.3283C9.09107 14.3556 9.01982 14.3897 8.92759 14.4308C8.74618 14.5117 8.50551 14.6098 8.20024 14.726C8.19613 14.7274 8.19092 14.7292 8.18443 14.7314L8.09436 14.762L7.75258 14.8781L6.42648 15.3282C5.84053 15.527 5.38781 15.6824 5.07052 15.7936C4.91247 15.849 4.78344 15.895 4.68651 15.9308C4.68337 15.932 4.67992 15.9333 4.6762 15.9346C4.62831 15.9523 4.53515 15.9866 4.44827 16.0262C3.60781 16.3943 2.80395 16.8762 2.35116 17.5695L2.2904 17.6625L2.247 17.7648C2.02884 18.279 1.92032 19.0102 1.8538 19.8041C1.78341 20.6442 1.75 21.7133 1.75 23V24.25H3H23H24.25V23C24.25 21.7133 24.2166 20.6442 24.1462 19.8041C24.0797 19.0102 23.9712 18.279 23.753 17.7648L23.7096 17.6625L23.6488 17.5695Z" stroke="#F96A38" stroke-opacity="0.5" stroke-width="2.5"/>
</svg>
